<?xml version="1.0" encoding="UTF-8" standalone="no"?>
<!DOCTYPE svg PUBLIC "-//W3C//DTD SVG 1.1//EN"
 "http://www.w3.org/Graphics/SVG/1.1/DTD/svg11.dtd">
<!-- Generated by graphviz version 2.44.1 (20200629.0846)
 -->
<!-- Pages: 1 -->
<svg width="967pt" height="692pt"
 viewBox="0.00 0.00 966.80 692.00" xmlns="http://www.w3.org/2000/svg" xmlns:xlink="http://www.w3.org/1999/xlink">
<g id="graph0" class="graph" transform="scale(1 1) rotate(0) translate(4 688)">
<polygon fill="white" stroke="transparent" points="-4,4 -4,-688 962.8,-688 962.8,4 -4,4"/>
<!-- 0 -->
<g id="node1" class="node">
<title>0</title>
<polygon fill="none" stroke="black" points="588,-684 534,-684 534,-648 588,-648 588,-684"/>
<text text-anchor="middle" x="561" y="-662.3" font-family="Times,serif" font-size="14.00">eldiro</text>
</g>
<!-- 1 -->
<g id="node2" class="node">
<title>1</title>
<polygon fill="none" stroke="black" points="588,-612 534,-612 534,-576 588,-576 588,-612"/>
<text text-anchor="middle" x="561" y="-590.3" font-family="Times,serif" font-size="14.00">parser</text>
</g>
<!-- 0&#45;&gt;1 -->
<g id="edge1" class="edge">
<title>0&#45;&gt;1</title>
<path fill="none" stroke="black" d="M561,-647.7C561,-639.98 561,-630.71 561,-622.11"/>
<polygon fill="black" stroke="black" points="564.5,-622.1 561,-612.1 557.5,-622.1 564.5,-622.1"/>
</g>
<!-- 2 -->
<g id="node3" class="node">
<title>2</title>
<polygon fill="none" stroke="black" points="404,-468 350,-468 350,-432 404,-432 404,-468"/>
<text text-anchor="middle" x="377" y="-446.3" font-family="Times,serif" font-size="14.00">lexer</text>
</g>
<!-- 1&#45;&gt;2 -->
<g id="edge4" class="edge">
<title>1&#45;&gt;2</title>
<path fill="none" stroke="black" d="M533.67,-579.27C515.02,-569.39 490.16,-555.18 470,-540 444.23,-520.59 417.94,-494.77 399.92,-475.94"/>
<polygon fill="black" stroke="black" points="402.15,-473.19 392.73,-468.33 397.06,-478 402.15,-473.19"/>
</g>
<!-- 3 -->
<g id="node4" class="node">
<title>3</title>
<polygon fill="none" stroke="black" points="533,-540 479,-540 479,-504 533,-504 533,-540"/>
<text text-anchor="middle" x="506" y="-518.3" font-family="Times,serif" font-size="14.00">syntax</text>
</g>
<!-- 1&#45;&gt;3 -->
<g id="edge6" class="edge">
<title>1&#45;&gt;3</title>
<path fill="none" stroke="black" d="M547.4,-575.7C540.88,-567.39 532.93,-557.28 525.75,-548.14"/>
<polygon fill="black" stroke="black" points="528.37,-545.81 519.44,-540.1 522.87,-550.13 528.37,-545.81"/>
</g>
<!-- 4 -->
<g id="node5" class="node">
<title>4</title>
<ellipse fill="none" stroke="black" cx="641" cy="-522" rx="51.99" ry="18"/>
<text text-anchor="middle" x="641" y="-518.3" font-family="Times,serif" font-size="14.00">drop_bomb</text>
</g>
<!-- 1&#45;&gt;4 -->
<g id="edge2" class="edge">
<title>1&#45;&gt;4</title>
<path fill="none" stroke="black" d="M580.78,-575.7C591.13,-566.64 603.93,-555.44 615.06,-545.69"/>
<polygon fill="black" stroke="black" points="617.6,-548.13 622.82,-538.91 612.99,-542.86 617.6,-548.13"/>
</g>
<!-- 5 -->
<g id="node6" class="node">
<title>5</title>
<ellipse fill="none" stroke="blue" cx="760" cy="-522" rx="48.99" ry="18"/>
<text text-anchor="middle" x="760" y="-518.3" font-family="Times,serif" font-size="14.00">expect&#45;test</text>
</g>
<!-- 1&#45;&gt;5 -->
<g id="edge3" class="edge">
<title>1&#45;&gt;5</title>
<path fill="none" stroke="blue" d="M588.25,-583.41C621.22,-571.82 677.16,-552.14 716.21,-538.4"/>
<polygon fill="blue" stroke="blue" points="717.48,-541.67 725.75,-535.05 715.15,-535.07 717.48,-541.67"/>
</g>
<!-- 6 -->
<g id="node7" class="node">
<title>6</title>
<ellipse fill="none" stroke="black" cx="636" cy="-450" rx="32.49" ry="18"/>
<text text-anchor="middle" x="636" y="-446.3" font-family="Times,serif" font-size="14.00">rowan</text>
</g>
<!-- 1&#45;&gt;6 -->
<g id="edge5" class="edge">
<title>1&#45;&gt;6</title>
<path fill="none" stroke="black" d="M561.66,-575.87C563.03,-557.13 567.24,-526.73 580,-504 587.1,-491.35 598.23,-479.91 608.7,-470.93"/>
<polygon fill="black" stroke="black" points="610.97,-473.59 616.5,-464.56 606.54,-468.17 610.97,-473.59"/>
</g>
<!-- 7 -->
<g id="node8" class="node">
<title>7</title>
<ellipse fill="none" stroke="black" cx="347" cy="-378" rx="29.8" ry="18"/>
<text text-anchor="middle" x="347" y="-374.3" font-family="Times,serif" font-size="14.00">logos</text>
</g>
<!-- 2&#45;&gt;7 -->
<g id="edge7" class="edge">
<title>2&#45;&gt;7</title>
<path fill="none" stroke="black" d="M369.58,-431.7C366.12,-423.61 361.92,-413.81 358.09,-404.87"/>
<polygon fill="black" stroke="black" points="361.28,-403.44 354.12,-395.62 354.85,-406.19 361.28,-403.44"/>
</g>
<!-- 3&#45;&gt;2 -->
<g id="edge8" class="edge">
<title>3&#45;&gt;2</title>
<path fill="none" stroke="black" d="M478.96,-506.33C459.78,-495.92 433.84,-481.84 412.92,-470.49"/>
<polygon fill="black" stroke="black" points="414.47,-467.35 404.01,-465.65 411.13,-473.5 414.47,-467.35"/>
</g>
<!-- 3&#45;&gt;6 -->
<g id="edge11" class="edge">
<title>3&#45;&gt;6</title>
<path fill="none" stroke="black" d="M533.25,-506.33C554.1,-495.1 582.87,-479.61 604.67,-467.87"/>
<polygon fill="black" stroke="black" points="606.4,-470.92 613.54,-463.09 603.08,-464.75 606.4,-470.92"/>
</g>
<!-- 8 -->
<g id="node9" class="node">
<title>8</title>
<ellipse fill="none" stroke="#00cd00" cx="548" cy="-306" rx="51.99" ry="18"/>
<text text-anchor="middle" x="548" y="-302.3" font-family="Times,serif" font-size="14.00">num&#45;derive</text>
</g>
<!-- 3&#45;&gt;8 -->
<g id="edge9" class="edge">
<title>3&#45;&gt;8</title>
<path fill="none" stroke="#00cd00" d="M513.24,-503.61C517.24,-493.39 521.99,-480.14 525,-468 536.48,-421.71 542.82,-366.42 545.81,-334.15"/>
<polygon fill="#00cd00" stroke="#00cd00" points="549.3,-334.41 546.7,-324.14 542.33,-333.79 549.3,-334.41"/>
</g>
<!-- 9 -->
<g id="node10" class="node">
<title>9</title>
<ellipse fill="none" stroke="black" cx="469" cy="-450" rx="47.39" ry="18"/>
<text text-anchor="middle" x="469" y="-446.3" font-family="Times,serif" font-size="14.00">num&#45;traits</text>
</g>
<!-- 3&#45;&gt;9 -->
<g id="edge10" class="edge">
<title>3&#45;&gt;9</title>
<path fill="none" stroke="black" d="M496.85,-503.7C492.6,-495.64 487.44,-485.89 482.73,-476.98"/>
<polygon fill="black" stroke="black" points="485.81,-475.31 478.04,-468.1 479.62,-478.58 485.81,-475.31"/>
</g>
<!-- 10 -->
<g id="node11" class="node">
<title>10</title>
<ellipse fill="none" stroke="blue" cx="739" cy="-450" rx="46.29" ry="18"/>
<text text-anchor="middle" x="739" y="-446.3" font-family="Times,serif" font-size="14.00">difference</text>
</g>
<!-- 5&#45;&gt;10 -->
<g id="edge12" class="edge">
<title>5&#45;&gt;10</title>
<path fill="none" stroke="blue" d="M754.92,-504.05C752.58,-496.26 749.75,-486.82 747.12,-478.08"/>
<polygon fill="blue" stroke="blue" points="750.41,-476.85 744.18,-468.28 743.7,-478.86 750.41,-476.85"/>
</g>
<!-- 11 -->
<g id="node12" class="node">
<title>11</title>
<ellipse fill="none" stroke="blue" cx="847" cy="-450" rx="44.39" ry="18"/>
<text text-anchor="middle" x="847" y="-446.3" font-family="Times,serif" font-size="14.00">once_cell</text>
</g>
<!-- 5&#45;&gt;11 -->
<g id="edge13" class="edge">
<title>5&#45;&gt;11</title>
<path fill="none" stroke="blue" d="M779.31,-505.46C791.25,-495.86 806.75,-483.38 819.91,-472.8"/>
<polygon fill="blue" stroke="blue" points="822.15,-475.49 827.75,-466.49 817.76,-470.03 822.15,-475.49"/>
</g>
<!-- 12 -->
<g id="node13" class="node">
<title>12</title>
<ellipse fill="none" stroke="black" cx="912" cy="-378" rx="46.59" ry="18"/>
<text text-anchor="middle" x="912" y="-374.3" font-family="Times,serif" font-size="14.00">rustc&#45;hash</text>
</g>
<!-- 6&#45;&gt;12 -->
<g id="edge14" class="edge">
<title>6&#45;&gt;12</title>
<path fill="none" stroke="black" d="M661.95,-439.09C669.04,-436.58 676.76,-434.02 684,-432 759.63,-410.84 780.95,-415.62 857,-396 860.55,-395.08 864.21,-394.08 867.87,-393.04"/>
<polygon fill="black" stroke="black" points="868.91,-396.38 877.52,-390.2 866.94,-389.66 868.91,-396.38"/>
</g>
<!-- 13 -->
<g id="node14" class="node">
<title>13</title>
<ellipse fill="none" stroke="black" cx="614" cy="-378" rx="41.69" ry="18"/>
<text text-anchor="middle" x="614" y="-374.3" font-family="Times,serif" font-size="14.00">smol_str</text>
</g>
<!-- 6&#45;&gt;13 -->
<g id="edge15" class="edge">
<title>6&#45;&gt;13</title>
<path fill="none" stroke="black" d="M630.67,-432.05C628.22,-424.26 625.26,-414.82 622.51,-406.08"/>
<polygon fill="black" stroke="black" points="625.77,-404.77 619.43,-396.28 619.09,-406.86 625.77,-404.77"/>
</g>
<!-- 14 -->
<g id="node15" class="node">
<title>14</title>
<ellipse fill="none" stroke="black" cx="714" cy="-378" rx="40.09" ry="18"/>
<text text-anchor="middle" x="714" y="-374.3" font-family="Times,serif" font-size="14.00">text&#45;size</text>
</g>
<!-- 6&#45;&gt;14 -->
<g id="edge16" class="edge">
<title>6&#45;&gt;14</title>
<path fill="none" stroke="black" d="M652.54,-434.15C663.18,-424.61 677.2,-412.03 689.16,-401.29"/>
<polygon fill="black" stroke="black" points="691.57,-403.84 696.67,-394.55 686.89,-398.63 691.57,-403.84"/>
</g>
<!-- 15 -->
<g id="node16" class="node">
<title>15</title>
<ellipse fill="none" stroke="black" cx="810" cy="-378" rx="37.89" ry="18"/>
<text text-anchor="middle" x="810" y="-374.3" font-family="Times,serif" font-size="14.00">thin&#45;dst</text>
</g>
<!-- 6&#45;&gt;15 -->
<g id="edge17" class="edge">
<title>6&#45;&gt;15</title>
<path fill="none" stroke="black" d="M661.67,-438.67C691.01,-426.87 739.29,-407.45 772.76,-393.98"/>
<polygon fill="black" stroke="black" points="774.23,-397.16 782.2,-390.18 771.62,-390.67 774.23,-397.16"/>
</g>
<!-- 16 -->
<g id="node17" class="node">
<title>16</title>
<ellipse fill="none" stroke="#00cd00" stroke-dasharray="5,2" cx="332" cy="-306" rx="54.69" ry="18"/>
<text text-anchor="middle" x="332" y="-302.3" font-family="Times,serif" font-size="14.00">logos&#45;derive</text>
</g>
<!-- 7&#45;&gt;16 -->
<g id="edge18" class="edge">
<title>7&#45;&gt;16</title>
<path fill="none" stroke="#00cd00" stroke-dasharray="1,5" d="M343.37,-360.05C341.7,-352.26 339.68,-342.82 337.8,-334.08"/>
<polygon fill="#00cd00" stroke="#00cd00" points="341.22,-333.32 335.7,-324.28 334.37,-334.79 341.22,-333.32"/>
</g>
<!-- 17 -->
<g id="node18" class="node">
<title>17</title>
<ellipse fill="none" stroke="#00cd00" cx="526" cy="-90" rx="55.79" ry="18"/>
<text text-anchor="middle" x="526" y="-86.3" font-family="Times,serif" font-size="14.00">proc&#45;macro2</text>
</g>
<!-- 8&#45;&gt;17 -->
<g id="edge19" class="edge">
<title>8&#45;&gt;17</title>
<path fill="none" stroke="#00cd00" d="M557.49,-287.9C572.88,-257.77 599.59,-193.7 579,-144 574.14,-132.26 565.27,-121.76 556.17,-113.27"/>
<polygon fill="#00cd00" stroke="#00cd00" points="558.38,-110.56 548.54,-106.63 553.78,-115.84 558.38,-110.56"/>
</g>
<!-- 18 -->
<g id="node19" class="node">
<title>18</title>
<ellipse fill="none" stroke="#00cd00" cx="539" cy="-162" rx="30.59" ry="18"/>
<text text-anchor="middle" x="539" y="-158.3" font-family="Times,serif" font-size="14.00">quote</text>
</g>
<!-- 8&#45;&gt;18 -->
<g id="edge20" class="edge">
<title>8&#45;&gt;18</title>
<path fill="none" stroke="#00cd00" d="M546.91,-287.87C545.38,-263.67 542.56,-219.21 540.74,-190.39"/>
<polygon fill="#00cd00" stroke="#00cd00" points="544.22,-189.95 540.09,-180.19 537.23,-190.39 544.22,-189.95"/>
</g>
<!-- 19 -->
<g id="node20" class="node">
<title>19</title>
<ellipse fill="none" stroke="#00cd00" cx="459" cy="-234" rx="27" ry="18"/>
<text text-anchor="middle" x="459" y="-230.3" font-family="Times,serif" font-size="14.00">syn</text>
</g>
<!-- 8&#45;&gt;19 -->
<g id="edge21" class="edge">
<title>8&#45;&gt;19</title>
<path fill="none" stroke="#00cd00" d="M527.8,-289.12C514.81,-278.89 497.82,-265.53 483.98,-254.65"/>
<polygon fill="#00cd00" stroke="#00cd00" points="485.85,-251.67 475.83,-248.24 481.53,-257.17 485.85,-251.67"/>
</g>
<!-- 20 -->
<g id="node21" class="node">
<title>20</title>
<ellipse fill="none" stroke="#00cd00" cx="469" cy="-378" rx="37.09" ry="18"/>
<text text-anchor="middle" x="469" y="-374.3" font-family="Times,serif" font-size="14.00">autocfg</text>
</g>
<!-- 9&#45;&gt;20 -->
<g id="edge22" class="edge">
<title>9&#45;&gt;20</title>
<path fill="none" stroke="#00cd00" d="M469,-431.7C469,-423.98 469,-414.71 469,-406.11"/>
<polygon fill="#00cd00" stroke="#00cd00" points="472.5,-406.1 469,-396.1 465.5,-406.1 472.5,-406.1"/>
</g>
<!-- 16&#45;&gt;17 -->
<g id="edge25" class="edge">
<title>16&#45;&gt;17</title>
<path fill="none" stroke="#00cd00" stroke-dasharray="5,2" d="M349,-288.57C359.54,-278.24 373.26,-264.54 385,-252 397.02,-239.16 468.42,-157.21 504.76,-115.43"/>
<polygon fill="#00cd00" stroke="#00cd00" points="507.62,-117.48 511.54,-107.64 502.33,-112.89 507.62,-117.48"/>
</g>
<!-- 16&#45;&gt;18 -->
<g id="edge26" class="edge">
<title>16&#45;&gt;18</title>
<path fill="none" stroke="#00cd00" stroke-dasharray="5,2" d="M382.66,-299C417.69,-292.55 463.49,-279.25 495,-252 513.87,-235.68 525.47,-209.36 531.99,-189.56"/>
<polygon fill="#00cd00" stroke="#00cd00" points="535.37,-190.48 534.94,-179.89 528.67,-188.43 535.37,-190.48"/>
</g>
<!-- 16&#45;&gt;19 -->
<g id="edge28" class="edge">
<title>16&#45;&gt;19</title>
<path fill="none" stroke="#00cd00" stroke-dasharray="5,2" d="M358.93,-290.15C379.74,-278.69 408.48,-262.84 429.83,-251.08"/>
<polygon fill="#00cd00" stroke="#00cd00" points="431.7,-254.04 438.77,-246.15 428.32,-247.91 431.7,-254.04"/>
</g>
<!-- 21 -->
<g id="node22" class="node">
<title>21</title>
<ellipse fill="none" stroke="#00cd00" stroke-dasharray="5,2" cx="27" cy="-234" rx="27" ry="18"/>
<text text-anchor="middle" x="27" y="-230.3" font-family="Times,serif" font-size="14.00">beef</text>
</g>
<!-- 16&#45;&gt;21 -->
<g id="edge23" class="edge">
<title>16&#45;&gt;21</title>
<path fill="none" stroke="#00cd00" stroke-dasharray="5,2" d="M281.48,-298.84C226.69,-291.29 137.15,-276.4 63,-252 61.08,-251.37 59.13,-250.66 57.18,-249.9"/>
<polygon fill="#00cd00" stroke="#00cd00" points="58.15,-246.51 47.58,-245.78 55.39,-252.94 58.15,-246.51"/>
</g>
<!-- 22 -->
<g id="node23" class="node">
<title>22</title>
<ellipse fill="none" stroke="#00cd00" stroke-dasharray="5,2" cx="99" cy="-234" rx="27" ry="18"/>
<text text-anchor="middle" x="99" y="-230.3" font-family="Times,serif" font-size="14.00">fnv</text>
</g>
<!-- 16&#45;&gt;22 -->
<g id="edge24" class="edge">
<title>16&#45;&gt;22</title>
<path fill="none" stroke="#00cd00" stroke-dasharray="5,2" d="M287.48,-295.42C247.09,-286.16 186.2,-270.8 135,-252 133.15,-251.32 131.27,-250.58 129.38,-249.81"/>
<polygon fill="#00cd00" stroke="#00cd00" points="130.62,-246.53 120.05,-245.71 127.8,-252.93 130.62,-246.53"/>
</g>
<!-- 23 -->
<g id="node24" class="node">
<title>23</title>
<ellipse fill="none" stroke="#00cd00" stroke-dasharray="5,2" cx="200" cy="-234" rx="55.79" ry="18"/>
<text text-anchor="middle" x="200" y="-230.3" font-family="Times,serif" font-size="14.00">regex&#45;syntax</text>
</g>
<!-- 16&#45;&gt;23 -->
<g id="edge27" class="edge">
<title>16&#45;&gt;23</title>
<path fill="none" stroke="#00cd00" stroke-dasharray="5,2" d="M304.33,-290.33C284.62,-279.87 257.92,-265.72 236.47,-254.34"/>
<polygon fill="#00cd00" stroke="#00cd00" points="238.11,-251.25 227.64,-249.65 234.83,-257.43 238.11,-251.25"/>
</g>
<!-- 24 -->
<g id="node25" class="node">
<title>24</title>
<ellipse fill="none" stroke="#00cd00" stroke-dasharray="5,2" cx="325" cy="-234" rx="50.89" ry="18"/>
<text text-anchor="middle" x="325" y="-230.3" font-family="Times,serif" font-size="14.00">utf8&#45;ranges</text>
</g>
<!-- 16&#45;&gt;24 -->
<g id="edge29" class="edge">
<title>16&#45;&gt;24</title>
<path fill="none" stroke="#00cd00" stroke-dasharray="5,2" d="M330.27,-287.7C329.5,-279.98 328.57,-270.71 327.71,-262.11"/>
<polygon fill="#00cd00" stroke="#00cd00" points="331.19,-261.71 326.71,-252.1 324.22,-262.4 331.19,-261.71"/>
</g>
<!-- 25 -->
<g id="node26" class="node">
<title>25</title>
<ellipse fill="none" stroke="#00cd00" cx="484" cy="-18" rx="52.79" ry="18"/>
<text text-anchor="middle" x="484" y="-14.3" font-family="Times,serif" font-size="14.00">unicode&#45;xid</text>
</g>
<!-- 17&#45;&gt;25 -->
<g id="edge30" class="edge">
<title>17&#45;&gt;25</title>
<path fill="none" stroke="#00cd00" d="M515.83,-72.05C510.88,-63.8 504.82,-53.7 499.32,-44.54"/>
<polygon fill="#00cd00" stroke="#00cd00" points="502.22,-42.56 494.07,-35.79 496.22,-46.16 502.22,-42.56"/>
</g>
<!-- 18&#45;&gt;17 -->
<g id="edge31" class="edge">
<title>18&#45;&gt;17</title>
<path fill="none" stroke="#00cd00" d="M535.85,-144.05C534.42,-136.35 532.69,-127.03 531.08,-118.36"/>
<polygon fill="#00cd00" stroke="#00cd00" points="534.48,-117.47 529.21,-108.28 527.59,-118.75 534.48,-117.47"/>
</g>
<!-- 19&#45;&gt;17 -->
<g id="edge32" class="edge">
<title>19&#45;&gt;17</title>
<path fill="none" stroke="#00cd00" d="M466.13,-216.49C473.96,-198.53 487,-169.05 499,-144 503.21,-135.2 507.99,-125.68 512.35,-117.17"/>
<polygon fill="#00cd00" stroke="#00cd00" points="515.56,-118.57 517.03,-108.08 509.34,-115.37 515.56,-118.57"/>
</g>
<!-- 19&#45;&gt;18 -->
<g id="edge33" class="edge">
<title>19&#45;&gt;18</title>
<path fill="none" stroke="#00cd00" stroke-dasharray="1,5" d="M474.81,-219.17C486.27,-209.14 501.98,-195.39 514.99,-184.01"/>
<polygon fill="#00cd00" stroke="#00cd00" points="517.46,-186.5 522.68,-177.28 512.85,-181.23 517.46,-186.5"/>
</g>
<!-- 19&#45;&gt;25 -->
<g id="edge34" class="edge">
<title>19&#45;&gt;25</title>
<path fill="none" stroke="#00cd00" d="M457.02,-215.83C454.08,-186.13 450,-123.39 461,-72 462.93,-62.98 466.45,-53.59 470.16,-45.28"/>
<polygon fill="#00cd00" stroke="#00cd00" points="473.39,-46.62 474.52,-36.08 467.07,-43.62 473.39,-46.62"/>
</g>
</g>
</svg>
