<?xml version="1.0" encoding="UTF-8" standalone="no"?>
<!DOCTYPE svg PUBLIC "-//W3C//DTD SVG 1.1//EN"
 "http://www.w3.org/Graphics/SVG/1.1/DTD/svg11.dtd">
<!-- Generated by graphviz version 2.44.1 (20200629.0846)
 -->
<!-- Title: g Pages: 1 -->
<svg width="795pt" height="101pt"
 viewBox="0.00 0.00 794.50 101.00" xmlns="http://www.w3.org/2000/svg" xmlns:xlink="http://www.w3.org/1999/xlink">
<g id="graph0" class="graph" transform="scale(1 1) rotate(0) translate(4 97)">
<title>g</title>
<polygon fill="white" stroke="transparent" points="-4,4 -4,-97 790.5,-97 790.5,4 -4,4"/>
<!-- zero -->
<g id="node1" class="node">
<title>zero</title>
<polygon fill="none" stroke="black" points="0,-0.5 0,-92.5 145,-92.5 145,-0.5 0,-0.5"/>
<text text-anchor="middle" x="11.5" y="-42.8" font-family="Times,serif" font-size="14.00">0</text>
<polyline fill="none" stroke="black" points="23,-0.5 23,-92.5 "/>
<text text-anchor="middle" x="84" y="-77.3" font-family="Times,serif" font-size="14.00">hir::Expr::Binary</text>
<polyline fill="none" stroke="black" points="23,-69.5 145,-69.5 "/>
<text text-anchor="middle" x="84" y="-54.3" font-family="Times,serif" font-size="14.00">op: BinaryOp::Mul</text>
<polyline fill="none" stroke="black" points="23,-46.5 145,-46.5 "/>
<text text-anchor="middle" x="84" y="-31.3" font-family="Times,serif" font-size="14.00">lhs: Idx(1)</text>
<polyline fill="none" stroke="black" points="23,-23.5 145,-23.5 "/>
<text text-anchor="middle" x="84" y="-8.3" font-family="Times,serif" font-size="14.00">rhs: Idx(4)</text>
</g>
<!-- one -->
<g id="node2" class="node">
<title>one</title>
<polygon fill="none" stroke="black" points="163,-0.5 163,-92.5 308,-92.5 308,-0.5 163,-0.5"/>
<text text-anchor="middle" x="174.5" y="-42.8" font-family="Times,serif" font-size="14.00">1</text>
<polyline fill="none" stroke="black" points="186,-0.5 186,-92.5 "/>
<text text-anchor="middle" x="247" y="-77.3" font-family="Times,serif" font-size="14.00">hir::Expr::Binary</text>
<polyline fill="none" stroke="black" points="186,-69.5 308,-69.5 "/>
<text text-anchor="middle" x="247" y="-54.3" font-family="Times,serif" font-size="14.00">op: BinaryOp::Add</text>
<polyline fill="none" stroke="black" points="186,-46.5 308,-46.5 "/>
<text text-anchor="middle" x="247" y="-31.3" font-family="Times,serif" font-size="14.00">lhs: Idx(2)</text>
<polyline fill="none" stroke="black" points="186,-23.5 308,-23.5 "/>
<text text-anchor="middle" x="247" y="-8.3" font-family="Times,serif" font-size="14.00">rhs: Idx(3)</text>
</g>
<!-- two -->
<g id="node3" class="node">
<title>two</title>
<polygon fill="none" stroke="black" points="326.5,-23.5 326.5,-69.5 458.5,-69.5 458.5,-23.5 326.5,-23.5"/>
<text text-anchor="middle" x="338" y="-42.8" font-family="Times,serif" font-size="14.00">2</text>
<polyline fill="none" stroke="black" points="349.5,-23.5 349.5,-69.5 "/>
<text text-anchor="middle" x="404" y="-54.3" font-family="Times,serif" font-size="14.00">hir::Expr::Literal</text>
<polyline fill="none" stroke="black" points="349.5,-46.5 458.5,-46.5 "/>
<text text-anchor="middle" x="404" y="-31.3" font-family="Times,serif" font-size="14.00">n: 5</text>
</g>
<!-- three -->
<g id="node4" class="node">
<title>three</title>
<polygon fill="none" stroke="black" points="476.5,-23.5 476.5,-69.5 608.5,-69.5 608.5,-23.5 476.5,-23.5"/>
<text text-anchor="middle" x="488" y="-42.8" font-family="Times,serif" font-size="14.00">3</text>
<polyline fill="none" stroke="black" points="499.5,-23.5 499.5,-69.5 "/>
<text text-anchor="middle" x="554" y="-54.3" font-family="Times,serif" font-size="14.00">hir::Expr::Literal</text>
<polyline fill="none" stroke="black" points="499.5,-46.5 608.5,-46.5 "/>
<text text-anchor="middle" x="554" y="-31.3" font-family="Times,serif" font-size="14.00">n: 10</text>
</g>
<!-- four -->
<g id="node5" class="node">
<title>four</title>
<polygon fill="none" stroke="black" points="626.5,-23.5 626.5,-69.5 786.5,-69.5 786.5,-23.5 626.5,-23.5"/>
<text text-anchor="middle" x="638" y="-42.8" font-family="Times,serif" font-size="14.00">4</text>
<polyline fill="none" stroke="black" points="649.5,-23.5 649.5,-69.5 "/>
<text text-anchor="middle" x="718" y="-54.3" font-family="Times,serif" font-size="14.00">hir::Expr::VariableRef</text>
<polyline fill="none" stroke="black" points="649.5,-46.5 786.5,-46.5 "/>
<text text-anchor="middle" x="718" y="-31.3" font-family="Times,serif" font-size="14.00">var: &quot;foo&quot;</text>
</g>
</g>
</svg>
