<?xml version="1.0" encoding="UTF-8" standalone="no"?>
<!DOCTYPE svg PUBLIC "-//W3C//DTD SVG 1.1//EN"
 "http://www.w3.org/Graphics/SVG/1.1/DTD/svg11.dtd">
<!-- Generated by graphviz version 2.44.1 (20200629.0846)
 -->
<!-- Title: g Pages: 1 -->
<svg width="448pt" height="169pt"
 viewBox="0.00 0.00 448.00 169.00" xmlns="http://www.w3.org/2000/svg" xmlns:xlink="http://www.w3.org/1999/xlink">
<g id="graph0" class="graph" transform="scale(1 1) rotate(0) translate(4 165)">
<title>g</title>
<polygon fill="white" stroke="transparent" points="-4,4 -4,-165 444,-165 444,4 -4,4"/>
<!-- root -->
<g id="node1" class="node">
<title>root</title>
<polygon fill="none" stroke="black" points="0,-68.5 0,-160.5 122,-160.5 122,-68.5 0,-68.5"/>
<text text-anchor="middle" x="61" y="-145.3" font-family="Times,serif" font-size="14.00">hir::Expr::Binary</text>
<polyline fill="none" stroke="black" points="0,-137.5 122,-137.5 "/>
<text text-anchor="middle" x="61" y="-122.3" font-family="Times,serif" font-size="14.00">op: BinaryOp::Mul</text>
<polyline fill="none" stroke="black" points="0,-114.5 122,-114.5 "/>
<text text-anchor="middle" x="61" y="-99.3" font-family="Times,serif" font-size="14.00">lhs: Box</text>
<polyline fill="none" stroke="black" points="0,-91.5 122,-91.5 "/>
<text text-anchor="middle" x="61" y="-76.3" font-family="Times,serif" font-size="14.00">rhs: Box</text>
</g>
<!-- lhs1 -->
<g id="node2" class="node">
<title>lhs1</title>
<polygon fill="none" stroke="black" points="165.5,-65.5 165.5,-157.5 287.5,-157.5 287.5,-65.5 165.5,-65.5"/>
<text text-anchor="middle" x="226.5" y="-142.3" font-family="Times,serif" font-size="14.00">hir::Expr::Binary</text>
<polyline fill="none" stroke="black" points="165.5,-134.5 287.5,-134.5 "/>
<text text-anchor="middle" x="226.5" y="-119.3" font-family="Times,serif" font-size="14.00">op: BinaryOp::Add</text>
<polyline fill="none" stroke="black" points="165.5,-111.5 287.5,-111.5 "/>
<text text-anchor="middle" x="226.5" y="-96.3" font-family="Times,serif" font-size="14.00">lhs: Box</text>
<polyline fill="none" stroke="black" points="165.5,-88.5 287.5,-88.5 "/>
<text text-anchor="middle" x="226.5" y="-73.3" font-family="Times,serif" font-size="14.00">rhs: Box</text>
</g>
<!-- root&#45;&gt;lhs1 -->
<g id="edge1" class="edge">
<title>root:lhs&#45;&gt;lhs1:top</title>
<path fill="none" stroke="black" d="M122,-102.5C145.15,-102.5 139.98,-134.41 154.72,-143.88"/>
<polygon fill="black" stroke="black" points="153.93,-147.29 164.5,-146.5 155.75,-140.53 153.93,-147.29"/>
</g>
<!-- rhs1 -->
<g id="node5" class="node">
<title>rhs1</title>
<polygon fill="none" stroke="black" points="158,-0.5 158,-46.5 295,-46.5 295,-0.5 158,-0.5"/>
<text text-anchor="middle" x="226.5" y="-31.3" font-family="Times,serif" font-size="14.00">hir::Expr::VariableRef</text>
<polyline fill="none" stroke="black" points="158,-23.5 295,-23.5 "/>
<text text-anchor="middle" x="226.5" y="-8.3" font-family="Times,serif" font-size="14.00">var: &quot;foo&quot;</text>
</g>
<!-- root&#45;&gt;rhs1 -->
<g id="edge2" class="edge">
<title>root:rhs&#45;&gt;rhs1:top</title>
<path fill="none" stroke="black" d="M122,-79.5C143.12,-79.5 136.43,-48.75 148.43,-38.66"/>
<polygon fill="black" stroke="black" points="149.6,-41.96 158,-35.5 147.41,-35.32 149.6,-41.96"/>
</g>
<!-- lhs2 -->
<g id="node3" class="node">
<title>lhs2</title>
<polygon fill="none" stroke="black" points="331,-85.5 331,-131.5 440,-131.5 440,-85.5 331,-85.5"/>
<text text-anchor="middle" x="385.5" y="-116.3" font-family="Times,serif" font-size="14.00">hir::Expr::Literal</text>
<polyline fill="none" stroke="black" points="331,-108.5 440,-108.5 "/>
<text text-anchor="middle" x="385.5" y="-93.3" font-family="Times,serif" font-size="14.00">n: 5</text>
</g>
<!-- lhs1&#45;&gt;lhs2 -->
<g id="edge3" class="edge">
<title>lhs1:lhs&#45;&gt;lhs2:top</title>
<path fill="none" stroke="black" d="M288.5,-99.5C305.62,-99.5 309.07,-113.36 321.06,-118.56"/>
<polygon fill="black" stroke="black" points="320.52,-122.02 331,-120.5 321.85,-115.15 320.52,-122.02"/>
</g>
<!-- rhs2 -->
<g id="node4" class="node">
<title>rhs2</title>
<polygon fill="none" stroke="black" points="331,-20.5 331,-66.5 440,-66.5 440,-20.5 331,-20.5"/>
<text text-anchor="middle" x="385.5" y="-51.3" font-family="Times,serif" font-size="14.00">hir::Expr::Literal</text>
<polyline fill="none" stroke="black" points="331,-43.5 440,-43.5 "/>
<text text-anchor="middle" x="385.5" y="-28.3" font-family="Times,serif" font-size="14.00">n: 10</text>
</g>
<!-- lhs1&#45;&gt;rhs2 -->
<g id="edge4" class="edge">
<title>lhs1:rhs&#45;&gt;rhs2:top</title>
<path fill="none" stroke="black" d="M288.5,-76.5C305.62,-76.5 309.07,-62.64 321.06,-57.44"/>
<polygon fill="black" stroke="black" points="321.85,-60.85 331,-55.5 320.52,-53.98 321.85,-60.85"/>
</g>
</g>
</svg>
